<svg xmlns="http://www.w3.org/2000/svg" xmlns:xlink="http://www.w3.org/1999/xlink" viewBox="0 0 2000 2000"><defs><style>.a{clip-path:url(#b);}.b{fill:#4e3d5a;}</style><clipPath id="b"><rect width="2000" height="2000"/></clipPath></defs><g id="a" class="a"><g transform="translate(0 5)"><g transform="translate(14 -1.775)"><rect class="b" width="499.432" height="139.723" transform="translate(1089.568 344.215) rotate(60)"/><path class="b" d="M1763.667,0" transform="translate(84.233 860.718)"/><path class="b" d="M903.755,0" transform="translate(533.923 296.722)"/><path class="b" d="M410.62.354l65.287,140.064h236.72L538.751,491.934,691.11,1065.547,190.346,491.934H.7l861.645,940.042V1226.231l-167.914-734.3,175.035-347L862.6.068Z" transform="translate(123.303 296.368)"/><circle class="b" cx="130" cy="130" r="130" transform="translate(104 658.797)"/><circle class="b" cx="130" cy="130" r="130" transform="translate(364 236.836)"/><circle class="b" cx="130" cy="130" r="130" transform="translate(1608.025 658.797)"/><path class="b" d="M0,1466.326" transform="translate(985.8 263.019)"/><circle class="b" cx="130" cy="130" r="130" transform="translate(624.46 658.797)"/><path class="b" d="M130,0A130,130,0,1,1,0,130,130,130,0,0,1,130,0Z" transform="translate(855.813 1494.055)"/><path class="b" d="M0,0" transform="translate(1192.051 788.917)"/><circle class="b" cx="130" cy="130" r="130" transform="translate(1348.025 236.593)"/><circle class="b" cx="130" cy="130" r="130" transform="translate(1135.013 658.797)"/><path class="b" d="M1732.524,739.038,1005.5,1528.221l106.632,106.6,726.454-813.763Z" transform="translate(-19.727 -11.167)"/><rect class="b" width="499.565" height="139.757" transform="translate(1253.153 719.038)"/><path class="b" d="M0,0H499.565V139.757H0Z" transform="translate(954.001 296.834)"/><circle class="b" cx="130" cy="130" r="130" transform="translate(856 236.836)"/></g><path class="b" d="M1731.957,1634.821,1005.5,821.058Z" transform="translate(-790.35 47.355)"/></g></g></svg>